<svg width="20" height="20" viewBox="0 0 20 20" fill="none" xmlns="http://www.w3.org/2000/svg">
<path d="M12.5 3.75C12.8125 3.75 13.125 3.47656 13.125 3.125V0.625C13.125 0.3125 12.8125 0 12.5 0C12.1484 0 11.875 0.3125 11.875 0.625V3.125C11.875 3.47656 12.1484 3.75 12.5 3.75ZM14.9609 3.75C15.1562 3.75 15.3516 3.67188 15.4688 3.47656L16.7578 1.60156C16.8359 1.52344 16.8359 1.40625 16.8359 1.28906C16.8359 0.9375 16.5625 0.625 16.2109 0.625C16.0156 0.625 15.8203 0.742188 15.7031 0.9375L14.4531 2.8125C14.375 2.89062 14.3359 3.00781 14.3359 3.125C14.3359 3.47656 14.6094 3.75 14.9609 3.75ZM15 13.9844V7.57812C15 7.34375 14.8047 6.25 13.75 6.25C13.0469 6.25 12.4609 6.83594 12.4609 7.5L12.5 10.5078L6.60156 4.60938C6.40625 4.41406 6.17188 4.33594 5.9375 4.33594C5.39062 4.33594 5 4.76562 5 5.27344C5 5.50781 5.07812 5.74219 5.27344 5.9375L8.75 9.41406C8.86719 9.53125 8.90625 9.6875 8.90625 9.80469C8.90625 9.96094 8.86719 10.1172 8.75 10.2344C8.63281 10.3516 8.47656 10.3906 8.35938 10.3906C8.20312 10.3906 8.04688 10.3516 7.92969 10.2344L3.71094 6.01562C3.55469 5.85938 3.32031 5.74219 3.04688 5.74219C2.53906 5.74219 2.10938 6.21094 2.10938 6.67969C2.10938 6.95312 2.22656 7.1875 2.38281 7.34375L6.60156 11.5625C6.71875 11.6797 6.75781 11.8359 6.75781 11.9531C6.75781 12.0703 6.71875 12.2266 6.60156 12.3438C6.48438 12.4609 6.32812 12.5 6.21094 12.5C6.05469 12.5 5.89844 12.4609 5.78125 12.3438L2.30469 8.90625C2.10938 8.71094 1.875 8.63281 1.64062 8.63281C1.09375 8.63281 0.703125 9.0625 0.703125 9.57031C0.703125 9.80469 0.78125 10.0391 0.976562 10.2344L4.45312 13.7109C4.57031 13.8281 4.60938 13.9844 4.60938 14.1016C4.60938 14.2578 4.57031 14.4141 4.45312 14.5312C4.33594 14.6484 4.17969 14.6875 4.0625 14.6875C3.90625 14.6875 3.75 14.6484 3.63281 14.5312L1.5625 12.4609C1.40625 12.2656 1.17188 12.1875 0.9375 12.1875C0.390625 12.1875 0 12.6172 0 13.125C0 13.3594 0.078125 13.5938 0.273438 13.7891C4.375 17.9297 5.89844 20 9.0625 20C12.4219 20 15 17.2266 15 13.9844ZM9.49219 3.47656C9.60938 3.67188 9.80469 3.75 10 3.75C10.3516 3.75 10.625 3.47656 10.625 3.125C10.625 3.00781 10.5859 2.89062 10.5078 2.8125L9.25781 0.9375C9.14062 0.742188 8.94531 0.625 8.71094 0.625C8.35938 0.625 8.08594 0.9375 8.08594 1.28906C8.08594 1.40625 8.125 1.52344 8.16406 1.60156L9.49219 3.47656ZM18.75 6.25C18.0469 6.25 17.5 6.83594 17.5 7.5V10.5078L16.25 9.25781V13.9844C16.25 17.6562 13.75 19.5312 13.1641 19.9219C13.4766 19.9609 13.75 20 14.0625 20C17.4219 20 20 17.2266 20 13.9844L19.9609 7.5C19.9609 6.83594 19.4141 6.25 18.75 6.25Z" fill="black" fill-opacity="0.6"/>
</svg>
