<svg width="66" height="74" viewBox="0 0 66 74" fill="none" xmlns="http://www.w3.org/2000/svg">
<g clip-path="url(#clip0_190_3152)">
<path fill-rule="evenodd" clip-rule="evenodd" d="M35.1 3.51782V7.58384C34.4056 7.54005 33.7053 7.51782 33 7.51782C32.2947 7.51782 31.5945 7.54005 30.9 7.58384V3.51782H35.1ZM27.9 2.01782V7.91106C12.114 10.3691 0 24.052 0 40.5178C0 58.7178 14.8 73.5178 33 73.5178C51.2 73.5178 66 58.7178 66 40.5178C66 24.052 53.886 10.3691 38.1 7.91107V2.01782C38.1 1.21782 37.4 0.517822 36.6 0.517822H29.4C28.6 0.517822 27.9 1.21782 27.9 2.01782ZM3 40.6178C3 24.8511 15.1787 11.9711 30.5393 10.7178H35.4607C50.8213 11.9711 63 24.8511 63 40.6178C63 57.2178 49.6 70.6178 33 70.6178C16.4 70.6178 3 57.2178 3 40.6178ZM34.5 67.0758C47.9431 66.3201 58.7578 55.4739 59.4634 42.0178H60C60.8 42.0178 61.5 41.3178 61.5 40.5178C61.5 39.7178 60.8 39.0178 60 39.0178H59.4528C58.6562 25.5632 47.88 14.8121 34.5 14.0599V13.6178C34.5 12.8178 33.8 12.1178 33 12.1178C32.2 12.1178 31.5 12.8178 31.5 13.6178V14.0599C18.12 14.8121 7.34383 25.5632 6.54723 39.0178H6C5.2 39.0178 4.5 39.7178 4.5 40.5178C4.5 41.3178 5.2 42.0178 6 42.0178H6.53662C7.24218 55.4739 18.0569 66.3201 31.5 67.0758V67.5178C31.5 68.3178 32.2 69.0178 33 69.0178C33.8 69.0178 34.5 68.3178 34.5 67.5178V67.0758ZM34.5 64.0698C46.2487 63.3163 55.7545 53.7792 56.4582 42.0178H56.4C55.6 42.0178 54.9 41.3178 54.9 40.5178C54.9 39.7178 55.6 39.0178 56.4 39.0178H56.4474C55.6664 27.1722 46.2729 17.8028 34.5 17.0647V17.2178C34.5 18.0178 33.8 18.7178 33 18.7178C32.2 18.7178 31.5 18.0178 31.5 17.2178V17.0651C19.7309 17.8097 10.3396 27.2549 9.55331 39.0178H9.6C10.4 39.0178 11.1 39.7178 11.1 40.5178C11.1 41.3178 10.5 42.0178 9.6 42.0178H9.54118C10.2401 53.8633 19.7479 63.3233 31.5 64.0703V63.9178C31.5 63.1178 32.2 62.4178 33 62.4178C33.8 62.4178 34.5 63.1178 34.5 63.9178V64.0698ZM21.6 53.5179C21.2 53.5179 20.8 53.4179 20.5 53.1179C20 52.6179 19.9 51.8179 20.3 51.2179L28.9029 37.6853C28.9704 37.4446 29.1028 37.215 29.3 37.0179C29.4179 36.8999 29.5475 36.8052 29.6841 36.7336L29.7 36.7179L43.7 27.8179C44.3 27.4179 45.1 27.5179 45.6 28.0179C46.1 28.5179 46.2 29.3179 45.8 29.9179L36.9 43.9179C36.8354 44.047 36.7291 44.1345 36.6081 44.2341L36.6081 44.2341C36.5417 44.2887 36.4708 44.347 36.4 44.4179L22.4 53.3179C22.1 53.4179 21.8 53.5179 21.6 53.5179ZM30.6435 40.4614L26.4 47.1179L33.0565 42.8744L30.6435 40.4614ZM35.1786 40.7965L32.7213 38.3392L39.5 34.0179L35.1786 40.7965Z" fill="white"/>
</g>
<defs>
<clipPath id="clip0_190_3152">
<rect width="66" height="73" fill="white" transform="translate(0 0.517822)"/>
</clipPath>
</defs>
</svg>
