<svg width="25" height="16" viewBox="0 0 25 16" fill="none" xmlns="http://www.w3.org/2000/svg">
<path d="M24.2635 1.25172C22.8068 0.738364 21.2672 0.483575 19.7179 0.499481C14.907 0.499481 10.0961 2.58652 5.28269 2.58652C4.06032 2.59543 2.8425 2.44082 1.66343 2.12704C1.53187 2.09112 1.39589 2.07283 1.25924 2.07267C1.10463 2.06211 0.949386 2.08129 0.802396 2.12912C0.655406 2.17696 0.519552 2.25251 0.4026 2.35145C0.285649 2.45039 0.189895 2.57078 0.120814 2.70574C0.0517324 2.84071 0.0106786 2.98759 0 3.138L0 13.7608C0.00387723 13.9792 0.0766641 14.1912 0.208507 14.3681C0.34035 14.545 0.524881 14.6781 0.737119 14.7496C2.19377 15.2631 3.73341 15.5179 5.28269 15.5019C10.0936 15.5019 14.9052 13.4142 19.7179 13.4142C20.9403 13.4053 22.1581 13.5599 23.3372 13.8737C23.4687 13.9096 23.6047 13.9279 23.7414 13.9281C23.8962 13.9386 24.0516 13.9194 24.1988 13.8714C24.3459 13.8234 24.4819 13.7477 24.5988 13.6485C24.7158 13.5493 24.8115 13.4286 24.8805 13.2934C24.9494 13.1581 24.9902 13.011 25.0006 12.8604V2.23818C24.9961 2.0202 24.923 1.8088 24.7912 1.63244C24.6594 1.45608 24.4753 1.32321 24.2635 1.25172ZM1.87474 3.85499C2.68171 4.01853 3.50093 4.11843 4.32443 4.15373C4.17455 4.6671 3.85141 5.11647 3.40704 5.42948C2.96267 5.74249 2.42294 5.90093 1.87474 5.87929V3.85499ZM1.87474 13.3975V11.7974C2.48056 11.7672 3.07538 11.9632 3.53757 12.3453C3.99977 12.7275 4.29442 13.2669 4.36129 13.8534C3.51662 13.7991 2.68176 13.646 1.87474 13.3975ZM12.5015 11.2137C11.6492 11.1898 10.8414 10.8378 10.2555 10.2352C9.66968 9.63248 9.35363 8.82831 9.37677 7.99918C9.35363 7.17006 9.66968 6.36588 10.2555 5.7632C10.8414 5.16052 11.6492 4.8086 12.5015 4.78468C13.3539 4.8086 14.1617 5.16052 14.7475 5.7632C15.3334 6.36588 15.6494 7.17006 15.6263 7.99918C15.6494 8.82861 15.3331 9.63305 14.7469 10.2358C14.1606 10.8385 13.3524 11.1902 12.4997 11.2137H12.5015ZM23.1283 12.144C22.4289 12.0011 21.7199 11.9067 21.0067 11.8614C21.1471 11.4102 21.4245 11.0109 21.8025 10.716C22.1805 10.421 22.6414 10.2442 23.1246 10.2087L23.1283 12.144ZM23.1283 4.23858C22.571 4.20684 22.0439 3.98123 21.6434 3.60291C21.2428 3.2246 20.9955 2.7188 20.9465 2.17783C21.6865 2.2434 22.4173 2.38541 23.1265 2.60145L23.1283 4.23858Z" fill="#2097F5"/>
</svg>
