<svg width="155" height="94" viewBox="0 0 155 94" fill="none" xmlns="http://www.w3.org/2000/svg">
<path fill-rule="evenodd" clip-rule="evenodd" d="M65.6129 3.37558C67.4875 2.46611 74.6741 1.29024 77.0039 1.00016C85.965 -0.116047 93.604 -0.468549 102.619 0.835466C105.041 1.18579 111.703 2.31646 113.646 3.38884C114.758 3.44196 117.778 4.91414 118.775 5.55964C120.21 6.48932 122.052 8.31498 121.174 10.2322C120.847 11.5029 120.151 12.6845 119.363 13.7315C118.018 15.9503 114.562 18.9269 112.474 20.5331C110.441 22.5659 100.429 28.4314 97.6629 29.2846C96.7471 30.0318 87.6523 33.4795 86.1704 33.8285C66.8341 40.8438 43.0497 41.5773 22.7253 39.2217C22.4565 39.1906 19.758 38.9403 20.2299 38.8426C20.9787 38.6878 22.8937 38.76 23.7607 38.7485C35.3503 38.5963 48.3003 37.2599 59.6865 34.9471C61.8271 34.5123 64.0897 33.9381 66.2241 33.6109C66.7698 33.269 73.5736 31.6175 74.8484 31.251C76.259 30.8455 77.6628 30.3746 79.0723 29.9563C80.065 29.6616 82.4666 28.699 83.2862 28.6394C83.442 28.491 91.9863 25.2329 93.1599 24.7203C94.7243 24.0369 96.4131 23.3052 97.9245 22.5269C98.6319 22.1626 102.097 20.277 102.533 20.1959C102.828 19.8071 106.023 17.9652 106.792 17.3667C107.909 16.4973 109.869 15.2195 110.063 13.7518C109.684 11.8677 105.093 10.7974 103.404 10.4154C90.6984 7.12916 75.2385 7.57003 62.5076 10.6066C59.18 11.3394 55.9358 12.3288 52.7229 13.427C51.1734 13.9565 49.7152 14.5389 48.1957 15.1402C46.7642 15.7065 45.2023 16.5871 43.8049 17.0451C41.2414 18.4007 38.8043 19.6468 36.2669 21.0794C33.8599 22.4384 31.4222 24.1216 29.1735 25.7319C24.681 28.9491 20.3368 32.564 16.4563 36.4868C12.4334 40.5533 17.7234 34.1501 18.3507 33.4806C20.2677 31.4348 21.9726 29.386 23.9952 27.3946C27.0015 24.4345 33.1768 18.7035 36.7659 16.7351C37.3214 15.7981 46.5675 10.3829 47.9102 10.004C49.4968 8.65794 63.6753 3.29489 65.6129 3.37558ZM124.214 30.1863C124.464 29.6008 124.939 27.5383 125.125 27.3173C125.644 27.132 127.717 27.0657 128.582 26.8898C131.376 26.3215 134.294 24.9428 136.749 23.5322C140.55 21.1317 144.378 18.5727 147.203 15.0681C151.899 9.2445 146.576 6.02687 140.83 6.10448C142.351 6.83253 146.502 9.1571 146.164 11.0561C145.112 12.549 141.638 12.551 140.149 11.683C138.569 10.7616 137.895 7.29288 139.232 6.17045C136.772 5.84722 130.31 7.30283 129.582 7.05648C129.355 6.90182 134.894 4.90339 135.577 4.64362C138.058 3.70043 139.873 2.87181 142.563 2.51317C147.818 1.81245 152.964 2.50743 154.278 8.43132C155.388 13.4395 152.146 17.4249 148.832 20.7222C147.421 22.1263 145.387 23.5981 143.731 24.7278C141.833 26.0224 140.014 26.971 138.107 28.1563C139.149 28.7954 140.275 29.1939 141.401 29.9642C142.36 30.6202 143.562 31.4641 144.303 32.3297C146.01 34.3232 147.495 36.3298 148.249 38.928C148.65 40.0047 149.28 42.5225 149.145 43.6116L149.315 44.6187C149.364 46.2584 149.351 48.3396 149.05 49.9476L148.593 52.663L148.228 54.1957C147.882 55.6925 147.335 57.1367 146.762 58.5593C144.619 63.6657 139.921 71.2842 133.798 72.0171C125.37 73.026 133.882 57.4629 135.359 54.537C135.896 53.4732 137.336 50.6415 137.336 50.6415C137.167 51.9245 128.613 68.1192 133.219 69.7196C134.933 70.3149 136.674 69.0421 137.675 67.7768C139.574 65.3766 140.753 61.3938 141.54 58.4615L142.49 53.4858L142.854 48.268L142.706 43.0963L142.162 39.1353C141.279 35.054 140.09 31.5966 137.005 28.6678L136.737 28.6801C135.568 29.2228 134.312 29.6514 133.076 30.0185C132.144 30.2951 129.398 30.6376 128.902 30.8851C128.604 31.3217 128.506 32.2642 128.334 32.8332C127.816 34.544 126.65 36.3981 125.47 37.7361C123.756 39.6789 122.149 41.1787 120.047 42.7308C116.688 45.2105 110.664 48.9213 106.778 50.3601L106.446 50.7745C106.105 51.9263 100.062 60.0266 99.3518 60.2356C98.8276 61.0821 94.9771 65.3096 94.2128 65.86C93.5255 66.8812 90.9577 69.1266 89.9369 70.0919C88.4864 71.4635 86.9833 72.9083 85.4407 74.1814C84.9692 74.8334 78.1795 80.6161 77.6446 80.7564C77.2171 81.4201 70.5935 86.4416 69.7515 86.7655C68.4292 88.1143 62.8638 91.3025 61.0033 92.1927C59.7361 92.7991 56.7449 94.2539 55.8884 92.4889C55.2987 91.2738 55.8059 87.6399 56.6687 86.732C57.895 81.9179 65.925 70.6346 69.5058 65.4865C73.2553 60.0958 65.5592 72.0825 63.4913 78.1088C62.9294 79.7463 61.3062 85.2053 64.8756 84.3481C66.8085 83.884 69.3257 81.7582 70.895 80.5282C72.024 79.5912 73.5051 78.4599 74.4985 77.4412C75.1016 76.8229 75.6045 76.3924 76.239 75.8296C76.8656 75.2738 77.3149 74.6145 78.0352 74.1512C78.6445 73.3695 79.7986 72.375 80.5344 71.6282C81.284 70.8675 82.2509 69.7575 83.0311 69.097C84.6792 67.7017 86.3935 65.2253 88.0674 63.9563C88.3434 63.4584 91.6469 59.8163 92.084 59.5676C92.2373 59.1435 93.7415 57.4989 94.1509 57.0019C94.6027 56.4532 95.9229 54.9529 96.1774 54.4195C93.4548 55.4287 89.6856 56.273 86.8093 56.8864C83.472 57.598 79.9889 58.2948 76.5948 58.6618C55.6224 61.2989 31.7754 57.3337 16.8177 41.3712C14.1372 38.5105 18.6324 43.2908 25.7629 46.8113C38.0934 52.899 54.3531 54.3348 68.0067 53.2908C71.0055 53.0615 73.9198 52.654 76.8988 52.3807C77.8862 51.9543 81.9222 51.4499 83.3213 51.169C87.0756 50.4153 92.0305 49.3155 95.6302 48.1103C97.4361 47.5057 99.6442 46.6462 101.42 46.1666C102.006 44.7863 102.03 44.0567 101.628 42.6205C100.769 41.6994 100.534 41.3342 99.2039 40.9759C97.9308 40.6329 96.4419 40.6084 95.1324 40.7009C92.8043 40.8653 90.2357 41.9103 88.1142 42.0614C88.9072 41.3979 92.3846 39.7668 93.5419 39.1394C95.4171 38.1227 97.429 36.9297 99.468 36.3101C104.917 34.6543 109.738 35.0001 109.677 41.8285L109.754 42.2327C110.757 42.4871 117.98 37.4667 119.069 36.5278C121.145 34.7387 123.113 32.7717 124.214 30.1863ZM8.45383 50.7278C10.9025 49.3967 14.5044 48.0757 17.1804 47.2018C18.1607 46.8818 21.2321 45.6614 18.488 47.3027C16.7422 48.3468 7.1683 53.7657 9.23708 55.7706C11.059 57.5365 29.4688 56.7771 32.7223 56.6094C32.8624 56.6022 38.7436 56.1676 35.996 56.7647C27.5431 58.6015 16.8242 60.4525 8.38968 60.3917C6.23436 60.4187 -1.24801 59.7714 0.875351 55.9585C1.91943 54.0839 6.3926 51.3775 8.45383 50.7278Z" fill="url(#paint0_linear_336_5036)"/>
<defs>
<linearGradient id="paint0_linear_336_5036" x1="77.5" y1="0" x2="77.5" y2="93.3333" gradientUnits="userSpaceOnUse">
<stop stop-color="#2097F5"/>
<stop offset="1" stop-color="#B4E8FF"/>
</linearGradient>
</defs>
</svg>
