<svg width="80" height="81" viewBox="0 0 80 81" fill="none" xmlns="http://www.w3.org/2000/svg">
<g clip-path="url(#clip0_190_3155)">
<path d="M27.062 80.0357C37.261 80.0357 46.159 74.3617 50.77 66.0057L74.589 60.0387C78.41 59.0807 80.74 55.1927 79.783 51.3717L68.267 5.41174C67.804 3.55974 66.647 2.00074 65.01 1.01874C63.372 0.0377418 61.451 -0.246258 59.6 0.216742L24.325 9.05474C24.068 9.11874 23.846 9.28374 23.711 9.51074C23.574 9.73874 23.534 10.0097 23.599 10.2677L27.521 25.9217C27.367 25.9187 27.216 25.9097 27.062 25.9097C12.141 25.9107 0 38.0517 0 52.9737C0 67.8957 12.141 80.0357 27.062 80.0357ZM25.782 10.7517L60.088 2.15674C61.42 1.82274 62.804 2.02774 63.984 2.73374C65.163 3.44074 65.996 4.56374 66.33 5.89774L77.846 51.8577C78.534 54.6087 76.857 57.4087 74.105 58.0987L51.924 63.6557C53.013 61.1327 53.727 58.4117 53.999 55.5637L70.721 51.3747C71.256 51.2407 71.582 50.6977 71.448 50.1617C71.314 49.6247 70.77 49.3047 70.235 49.4347L54.114 53.4737C54.117 53.3067 54.127 53.1407 54.127 52.9727C54.127 51.5677 54.019 50.1867 53.811 48.8387L69.739 44.8477C70.274 44.7137 70.6 44.1707 70.466 43.6347C70.332 43.0987 69.787 42.7747 69.253 42.9077L53.425 46.8737C52.969 44.9017 52.304 43.0077 51.441 41.2257C52.398 41.1667 53.353 41.0167 54.292 40.7757C62.352 38.6987 67.216 30.4347 65.135 22.3547C64.127 18.4407 61.658 15.1517 58.185 13.0947C54.71 11.0367 50.647 10.4597 46.742 11.4637C39.577 13.3107 34.9 19.9817 35.472 27.2537C33.6 26.6397 31.64 26.2237 29.614 26.0337L25.782 10.7517ZM44.047 21.8637L48.014 20.8417L49.195 25.4277L44.275 26.6947C43.938 24.9687 43.903 23.3437 44.047 21.8637ZM63.396 23.8357C63.67 25.3697 63.665 26.8957 63.411 28.3627L58.943 29.5137C59.05 28.1097 58.986 26.6137 58.683 25.0497L63.396 23.8357ZM56.879 30.0447L52.725 31.1147L51.631 26.8657L56.744 25.5487C57.034 27.1277 57.053 28.6437 56.879 30.0447ZM53.224 33.0527L56.45 32.2217C55.887 34.3567 55.003 36.0987 54.305 37.2517L53.224 33.0527ZM51.131 24.9297L49.95 20.3427L54.121 19.2687C54.962 20.4947 55.712 21.9367 56.252 23.6097L51.131 24.9297ZM49.451 18.4057L48.275 13.8407C49.119 14.3187 50.977 15.5077 52.782 17.5477L49.451 18.4057ZM47.514 18.9047L44.388 19.7097C44.927 17.2967 45.847 15.4657 46.389 14.5377L47.514 18.9047ZM49.694 27.3657L50.788 31.6147L46.844 32.6307C46.014 31.4867 45.283 30.1607 44.774 28.6327L49.694 27.3657ZM48.265 34.3297L51.287 33.5507L52.314 37.5397C51.175 36.8637 49.676 35.8087 48.265 34.3297ZM58.661 31.6517L62.833 30.5767C61.694 33.7387 59.363 36.4207 56.242 37.9367C57.107 36.4577 58.136 34.2817 58.661 31.6517ZM58.19 23.1107C57.669 21.4547 56.974 19.9977 56.184 18.7377L60.484 17.6297C61.544 18.8777 62.365 20.3167 62.9 21.8977L58.19 23.1107ZM54.945 16.9907C53.482 15.1507 51.91 13.8407 50.697 12.9977C52.952 13.0287 55.17 13.6357 57.164 14.8167C57.753 15.1657 58.298 15.5667 58.818 15.9927L54.945 16.9907ZM42.227 20.2667L38.331 21.2697C39.413 18.5267 41.4 16.1977 44.018 14.7107C43.364 16.0317 42.619 17.9427 42.227 20.2667ZM37.672 23.5057L41.986 22.3947C41.904 23.8797 42 25.4907 42.345 27.1927L38.118 28.2817C37.932 28.1977 37.748 28.1097 37.559 28.0307C37.328 26.4827 37.383 24.9597 37.672 23.5057ZM42.85 29.1287C43.176 30.1367 43.579 31.0677 44.043 31.9237C43.015 31.0927 41.926 30.3367 40.782 29.6617L42.85 29.1287ZM51.23 39.2337C50.945 39.2497 50.659 39.2547 50.374 39.2517C50.18 38.9227 49.978 38.5987 49.77 38.2787C50.287 38.6467 50.783 38.9687 51.23 39.2337ZM27.062 27.9107C40.881 27.9107 52.124 39.1537 52.124 52.9727C52.124 66.7917 40.882 78.0357 27.062 78.0357C13.242 78.0357 2 66.7927 2 52.9737C2 39.1547 13.243 27.9107 27.062 27.9107Z" fill="white"/>
<path d="M27.062 74.0366C32.616 74.0366 37.661 71.8596 41.428 68.3336C41.533 68.2856 41.635 68.2257 41.721 68.1386C41.774 68.0856 41.803 68.0186 41.841 67.9576C45.716 64.1356 48.125 58.8326 48.125 52.9726C48.125 41.3586 38.676 31.9106 27.062 31.9106C15.448 31.9106 5.99902 41.3586 5.99902 52.9726C5.99902 64.5866 15.448 74.0366 27.062 74.0366ZM46.056 51.5946H43.339C42.786 51.5946 42.339 52.0416 42.339 52.5946C42.339 53.1476 42.786 53.5946 43.339 53.5946H46.095C45.94 58.3736 44.024 62.7046 40.969 65.9716L39.188 64.1906C38.797 63.7996 38.165 63.7996 37.774 64.1906C37.383 64.5816 37.383 65.2136 37.774 65.6046L39.53 67.3606C36.393 70.0826 32.366 71.7866 27.946 71.9906V69.3906C27.946 68.8376 27.499 68.3906 26.946 68.3906C26.393 68.3906 25.946 68.8376 25.946 69.3906V71.9786C21.387 71.7126 17.261 69.8456 14.113 66.9216L16.003 65.0316C16.394 64.6406 16.394 64.0086 16.003 63.6176C15.612 63.2266 14.98 63.2266 14.589 63.6176L12.719 65.4876C9.91802 62.2816 8.17802 58.1386 8.03102 53.5916H10.957C11.51 53.5916 11.957 53.1446 11.957 52.5916C11.957 52.0386 11.51 51.5916 10.957 51.5916H8.07002C8.37502 47.3656 10.056 43.5226 12.676 40.5026L14.823 42.6506C15.018 42.8456 15.274 42.9436 15.53 42.9436C15.786 42.9436 16.042 42.8456 16.237 42.6506C16.628 42.2596 16.628 41.6276 16.237 41.2366L14.066 39.0646C17.22 36.1156 21.365 34.2316 25.947 33.9646V36.9316C25.947 37.4846 26.394 37.9316 26.947 37.9316C27.5 37.9316 27.947 37.4846 27.947 36.9316V33.9526C32.39 34.1576 36.435 35.8796 39.579 38.6266L37.488 40.7186C37.097 41.1096 37.097 41.7416 37.488 42.1326C37.683 42.3276 37.939 42.4256 38.195 42.4256C38.451 42.4256 38.707 42.3276 38.902 42.1326L41.013 40.0206C43.88 43.1116 45.735 47.1396 46.056 51.5946Z" fill="white"/>
<path d="M27.898 40.3837C27.765 39.9697 27.38 39.6897 26.946 39.6897C26.512 39.6897 26.127 39.9697 25.994 40.3837L21.983 52.8587C21.92 53.0567 21.92 53.2717 21.983 53.4697L25.994 65.9437C26.127 66.3577 26.512 66.6377 26.946 66.6377C27.38 66.6377 27.765 66.3577 27.898 65.9437L31.908 53.4697C31.971 53.2717 31.971 53.0567 31.908 52.8587L27.898 40.3837ZM26.946 62.3697L23.986 53.1637L26.946 43.9567L29.905 53.1637L26.946 62.3697Z" fill="white"/>
</g>
<defs>
<clipPath id="clip0_190_3155">
<rect width="79.9979" height="80.0357" fill="white"/>
</clipPath>
</defs>
</svg>
