<svg width="32" height="28" viewBox="0 0 32 28" fill="none" xmlns="http://www.w3.org/2000/svg">
<path fill-rule="evenodd" clip-rule="evenodd" d="M24.7342 15.0153L31.3781 26.5865C31.5388 26.8663 31.5405 27.2125 31.3839 27.4947C31.2262 27.7764 30.9336 27.95 30.6169 27.95H1.38303C1.06632 27.95 0.773751 27.7764 0.616573 27.4947C0.459396 27.2125 0.461162 26.8663 0.621872 26.5865L7.2663 15.0147C7.42525 14.7385 7.71429 14.569 8.02747 14.569H9.9966C8.84573 12.2599 8.25588 10.049 8.25588 7.98288C8.25588 3.60879 11.7303 0.0500488 16.0006 0.0500488C20.2708 0.0500488 23.7446 3.60879 23.7446 7.98348C23.7446 10.0593 23.1589 12.2701 22.018 14.5696H23.973C24.2862 14.5696 24.5753 14.7391 24.7342 15.0153ZM21.978 7.98288C21.978 4.60627 19.2966 1.85867 16 1.85867C12.7034 1.85867 10.0219 4.60627 10.0219 7.98288C10.0219 10.122 10.7701 12.4854 12.2465 15.0081C13.5734 17.2756 15.1587 19.0903 16.0023 19.9859C16.85 19.0915 18.4448 17.2762 19.7693 15.0087C21.2345 12.4999 21.978 10.1365 21.978 7.98288ZM2.92725 26.1396L8.53197 16.3783H10.9944C11.0044 16.3946 11.0146 16.4104 11.0247 16.4262C11.0349 16.442 11.045 16.4579 11.055 16.4742C11.1112 16.5652 11.1679 16.654 11.2245 16.7428C11.2332 16.7564 11.2418 16.77 11.2505 16.7835C11.3129 16.8818 11.3753 16.9795 11.4383 17.0748C11.5048 17.1761 11.5713 17.275 11.6378 17.3739C11.7002 17.4668 11.7626 17.5597 11.8256 17.6502C11.885 17.7361 11.9444 17.8206 12.0034 17.9045L12.0264 17.9372C12.0882 18.0247 12.1494 18.1103 12.2106 18.1953C12.2783 18.2888 12.3454 18.3805 12.4131 18.4709C12.4738 18.553 12.5332 18.6332 12.5933 18.7116C12.642 18.7755 12.6905 18.8388 12.7386 18.9018C12.7567 18.9255 12.7748 18.9491 12.7928 18.9727C12.8511 19.0481 12.9088 19.1216 12.9665 19.194C13.033 19.2784 13.0984 19.3611 13.1637 19.4419C13.2129 19.5031 13.2617 19.5629 13.3099 19.6222L13.3262 19.6421C13.3909 19.7217 13.4551 19.7995 13.5187 19.8755C13.5523 19.9162 13.5854 19.9554 13.6183 19.9943C13.6362 20.0154 13.654 20.0364 13.6717 20.0576L13.6788 20.066C13.7382 20.1361 13.7971 20.2056 13.8554 20.2723C13.8714 20.2907 13.8871 20.3088 13.9026 20.3267C13.9339 20.3627 13.9644 20.3979 13.9955 20.4333C14.0219 20.4633 14.048 20.4931 14.0738 20.5225C14.1062 20.5595 14.138 20.5959 14.1692 20.6311C14.1969 20.6623 14.2237 20.6919 14.2503 20.7214C14.2648 20.7375 14.2794 20.7536 14.294 20.7698L14.3038 20.7808C14.3563 20.8391 14.4078 20.8963 14.4576 20.9502C14.4947 20.9906 14.5294 21.028 14.5648 21.066L14.5702 21.0719C14.6196 21.1253 14.6683 21.1781 14.7137 21.2264C14.7455 21.2601 14.7732 21.2891 14.8032 21.3205C14.8223 21.3403 14.8414 21.3603 14.8601 21.3799C14.8865 21.4076 14.9121 21.4345 14.9362 21.4592C14.9531 21.4768 14.9681 21.4921 14.9832 21.5074C14.9908 21.5151 14.9984 21.5228 15.0063 21.5309C15.0457 21.5713 15.0863 21.6129 15.1205 21.6473C15.1364 21.663 15.1476 21.6745 15.1623 21.6889C15.2678 21.7951 15.3445 21.8695 15.3802 21.9041C15.3895 21.9131 15.396 21.9194 15.3995 21.9229C15.4843 22.0031 15.5802 22.0622 15.6815 22.1032C15.6952 22.1086 15.7099 22.1102 15.7245 22.1119C15.7362 22.1132 15.7479 22.1145 15.7592 22.1177C15.8375 22.1406 15.917 22.1629 15.9982 22.1629H15.9988C16.0289 22.1629 16.0583 22.1555 16.0878 22.148C16.105 22.1437 16.1221 22.1393 16.1395 22.1364C16.1561 22.1337 16.1728 22.1316 16.1895 22.1295C16.2314 22.1244 16.2732 22.1192 16.3131 22.1032C16.4144 22.064 16.5098 22.0049 16.5945 21.9253L16.5975 21.9226C16.6052 21.9154 16.6199 21.9019 16.6399 21.8819C16.6454 21.8767 16.652 21.8704 16.6593 21.8633C16.6715 21.8516 16.6855 21.8381 16.6987 21.8252C16.7059 21.8179 16.7116 21.8124 16.7182 21.8062C16.7229 21.8016 16.7282 21.7966 16.7346 21.7902C16.7564 21.7697 16.7841 21.742 16.8094 21.7161C16.8233 21.7025 16.836 21.69 16.8496 21.6766C16.8591 21.6673 16.869 21.6576 16.88 21.6467C16.9071 21.6196 16.9395 21.5864 16.9695 21.5557C17.0013 21.5243 17.0302 21.4941 17.0643 21.4592C17.0903 21.433 17.1179 21.4041 17.1457 21.3751C17.155 21.3653 17.1644 21.3555 17.1738 21.3458C17.2121 21.306 17.2491 21.2674 17.2903 21.224C17.3188 21.1944 17.3489 21.1621 17.3791 21.1297C17.3895 21.1185 17.4 21.1073 17.4104 21.0961L17.5523 20.9435C17.5794 20.9142 17.6075 20.8834 17.6357 20.8524C17.6511 20.8355 17.6665 20.8186 17.6818 20.8018C17.7348 20.7439 17.7866 20.6866 17.8419 20.6245C17.8885 20.572 17.9367 20.5172 17.985 20.4623C18.0322 20.4094 18.0787 20.3562 18.1269 20.3009C18.1376 20.2887 18.1484 20.2763 18.1592 20.2639C18.2093 20.206 18.2611 20.1457 18.3129 20.0848C18.3741 20.013 18.4353 19.9406 18.4983 19.8652C18.5519 19.8019 18.6066 19.7356 18.6608 19.6692L18.8562 19.4304C18.9116 19.3617 18.9675 19.2917 19.024 19.2199C19.0463 19.1915 19.0687 19.163 19.0912 19.1345C19.1369 19.0765 19.1829 19.018 19.2295 18.9582C19.2866 18.8846 19.3437 18.8099 19.4014 18.7339C19.4635 18.6529 19.5252 18.57 19.5877 18.4861L19.6097 18.4565C19.6692 18.3769 19.7287 18.296 19.7887 18.214C19.8576 18.1187 19.9276 18.021 19.9977 17.9227C20.0577 17.8377 20.1172 17.7533 20.1772 17.6664C20.2383 17.5776 20.2994 17.4873 20.3609 17.3965L20.388 17.3565C20.4384 17.2825 20.488 17.2077 20.5382 17.132C20.5478 17.1176 20.5573 17.1032 20.5669 17.0887C20.637 16.9813 20.7071 16.8722 20.7771 16.7618C20.8317 16.6759 20.8859 16.5899 20.9409 16.5025L20.9519 16.485C20.9658 16.4615 20.9802 16.439 20.9948 16.4163C21.003 16.4034 21.0113 16.3904 21.0196 16.3771H23.465L29.0698 26.1396H2.92725ZM19.9323 7.98283C19.9323 10.2046 18.1687 12.0114 16 12.0114C13.8319 12.0114 12.0676 10.2046 12.0676 7.98283C12.0676 5.76111 13.8319 3.9537 16 3.9537C18.1687 3.9537 19.9323 5.76111 19.9323 7.98283ZM18.1663 7.98344C18.1663 6.7592 17.1944 5.76352 16 5.76352C14.8055 5.76352 13.8336 6.7592 13.8336 7.98344C13.8336 9.20768 14.8055 10.2027 16 10.2027C17.195 10.2027 18.1663 9.20768 18.1663 7.98344Z" fill="white"/>
</svg>
