<svg width="85" height="54" viewBox="0 0 85 54" fill="none" xmlns="http://www.w3.org/2000/svg">
<path d="M10.0097 48H73.8083C74.4438 48 75 47.4442 75 46.8091V7.11153V7.03214C75 6.95274 75 6.95274 75 6.87335V6.79395V6.71456C75 6.71456 75 6.63516 74.9206 6.63516C74.9206 6.63516 74.9206 6.55576 74.8411 6.55576L74.7617 6.47637C74.7617 6.47637 74.7617 6.47637 74.7617 6.39698L74.6822 6.31758L74.6028 6.23818L74.5233 6.15879C74.5233 6.15879 74.4439 6.15879 74.4439 6.0794C74.4439 6.0794 74.3644 6.0794 74.3644 6H74.285H74.2055C74.1261 6 74.1261 6 74.0466 6C74.0466 6 74.0466 6 73.9672 6H10.0097C9.93028 6 9.93028 6 9.85083 6H9.77138H9.69193C9.69193 6 9.61248 6 9.61248 6.0794C9.61248 6.0794 9.53303 6.07939 9.53303 6.15879L9.45358 6.23818L9.37413 6.31758L9.29468 6.39698C9.29468 6.39698 9.29468 6.39698 9.29468 6.47637L9.21523 6.55576C9.21523 6.55576 9.21523 6.63516 9.13578 6.63516C9.13578 6.63516 9.13578 6.71456 9.05633 6.71456V6.79395V6.87335C9.05633 6.95274 9.05633 6.95274 9.05633 7.03214V7.11153V46.8091C8.81798 47.4442 9.37413 48 10.0097 48ZM11.2015 45.6181V9.73157L40.8364 35.6144C41.0748 35.7732 41.3131 35.9319 41.6309 35.9319C41.8693 35.9319 42.1871 35.8526 42.4254 35.6144L72.6165 9.65217V45.5388H11.2015V45.6181ZM13.1877 8.30246H70.6302L41.7104 33.1531L13.1877 8.30246Z" fill="white"/>
</svg>
