<svg width="66" height="59" viewBox="0 0 66 59" fill="none" xmlns="http://www.w3.org/2000/svg">
<path fill-rule="evenodd" clip-rule="evenodd" d="M51.5968 31.1276L65.7404 55.1728C66.0825 55.7542 66.0863 56.4736 65.7529 57.0601C65.4171 57.6453 64.7942 58.0062 64.12 58.0062H1.88606C1.21184 58.0062 0.588995 57.6453 0.25439 57.0601C-0.0802144 56.4736 -0.0764538 55.7542 0.26567 55.1728L14.4105 31.1263C14.7489 30.5524 15.3642 30.2002 16.0309 30.2002H20.2229C17.7729 25.4017 16.5172 20.8075 16.5172 16.514C16.5172 7.42456 23.9136 0.0294189 33.0043 0.0294189C42.095 0.0294189 49.4901 7.42455 49.4901 16.5153C49.4901 20.8288 48.2432 25.423 45.8145 30.2015H49.9764C50.6431 30.2015 51.2584 30.5536 51.5968 31.1276ZM45.7293 16.514C45.7293 9.49735 40.021 3.78777 33.003 3.78777C25.9851 3.78777 20.2768 9.49735 20.2768 16.514C20.2768 20.9591 21.8696 25.8704 25.0126 31.1126C27.8373 35.8246 31.2122 39.5955 33.008 41.4565C34.8127 39.598 38.2076 35.8258 41.0273 31.1138C44.1465 25.9005 45.7293 20.9892 45.7293 16.514ZM5.17343 54.2441L17.1049 33.9598H22.3471C22.3684 33.9937 22.39 34.0266 22.4116 34.0595C22.4332 34.0924 22.4548 34.1252 22.4761 34.1591C22.5957 34.3482 22.7162 34.5326 22.8368 34.7171C22.8553 34.7454 22.8737 34.7737 22.8922 34.802C23.025 35.0063 23.1579 35.2093 23.292 35.4073C23.4336 35.6178 23.5752 35.8233 23.7168 36.0289C23.8497 36.2219 23.9825 36.4148 24.1166 36.6028C24.2432 36.7816 24.3698 36.9575 24.4955 37.1321L24.5439 37.1993C24.6755 37.3811 24.8058 37.559 24.9362 37.7357C25.0803 37.93 25.2232 38.1205 25.3673 38.3084C25.4964 38.4789 25.6229 38.6455 25.7508 38.8085C25.8543 38.9411 25.9572 39.0724 26.0594 39.2029C26.0983 39.2524 26.137 39.3018 26.1756 39.3511C26.2997 39.5077 26.4225 39.6606 26.5453 39.811C26.6869 39.9865 26.826 40.1582 26.9651 40.3261C27.0817 40.4677 27.197 40.6055 27.311 40.7421C27.4488 40.9076 27.5854 41.0692 27.7208 41.2271C27.7923 41.3116 27.8627 41.393 27.9328 41.4739C27.9708 41.5178 28.0087 41.5615 28.0466 41.6056L28.0618 41.6231C28.1882 41.7688 28.3135 41.9132 28.4376 42.0517C28.4716 42.0899 28.505 42.1274 28.538 42.1645C28.6046 42.2394 28.6697 42.3126 28.7359 42.3863C28.7919 42.4485 28.8474 42.5103 28.9022 42.5714C28.9713 42.6484 29.0392 42.724 29.1056 42.7974C29.1646 42.8621 29.2215 42.9236 29.2781 42.9848C29.3092 43.0184 29.3401 43.0518 29.3713 43.0856L29.3924 43.1086C29.5041 43.2297 29.6135 43.3483 29.7196 43.4603C29.7986 43.5443 29.8725 43.622 29.9477 43.701C30.0568 43.8162 30.1645 43.9303 30.2648 44.0343C30.3325 44.1045 30.3914 44.1646 30.4553 44.2298C30.4959 44.2709 30.5365 44.3125 30.5764 44.3533C30.6325 44.4108 30.6872 44.4668 30.7385 44.518C30.7924 44.5732 30.8375 44.617 30.8876 44.6672C30.9716 44.7511 31.0581 44.8376 31.1308 44.909C31.1646 44.9416 31.1884 44.9654 31.2197 44.9955C31.4443 45.2161 31.6075 45.3706 31.6835 45.4425C31.7033 45.4613 31.7172 45.4745 31.7248 45.4818C31.9052 45.6484 32.1095 45.7712 32.3251 45.8565C32.3543 45.8676 32.3855 45.871 32.4166 45.8744C32.4416 45.8771 32.4665 45.8799 32.4905 45.8865C32.6572 45.9342 32.8263 45.9805 32.9993 45.9805H33.0005C33.0647 45.9805 33.1273 45.965 33.19 45.9495C33.2266 45.9404 33.2631 45.9314 33.3 45.9254C33.3354 45.9197 33.371 45.9154 33.4065 45.9111C33.4957 45.9003 33.5846 45.8896 33.6697 45.8565C33.8853 45.775 34.0883 45.6522 34.2688 45.4868C34.2825 45.4742 34.3164 45.4442 34.3653 45.3965C34.3912 45.3727 34.4292 45.3368 34.4671 45.3009L34.4906 45.2787C34.5169 45.2524 34.5344 45.2374 34.567 45.206C34.6134 45.1634 34.6723 45.1058 34.7262 45.0519C34.7763 45.0043 34.8189 44.9629 34.8766 44.9078C34.9342 44.8514 35.0031 44.7825 35.0671 44.7186C35.1174 44.67 35.1643 44.6229 35.215 44.572C35.2324 44.5545 35.2502 44.5366 35.2688 44.518C35.3241 44.4637 35.3828 44.4038 35.4419 44.3435C35.4619 44.3231 35.482 44.3027 35.5019 44.2824C35.5834 44.1997 35.6623 44.1195 35.75 44.0293C35.8315 43.9466 35.9192 43.8538 36.0057 43.7636C36.1035 43.6609 36.2012 43.5581 36.3077 43.4466C36.3654 43.3856 36.4252 43.3215 36.4854 43.2569C36.5181 43.222 36.5508 43.1869 36.5834 43.1521C36.6962 43.0317 36.8065 42.9127 36.9243 42.7836C37.0233 42.6746 37.1261 42.5605 37.2288 42.4465C37.3294 42.3367 37.4283 42.226 37.531 42.1111C37.5537 42.0857 37.5766 42.0601 37.5998 42.0342C37.7063 41.9139 37.8166 41.7886 37.9269 41.662C38.0572 41.5129 38.1875 41.3625 38.3216 41.2058C38.4357 41.0742 38.5522 40.9364 38.6675 40.7985C38.7097 40.7482 38.7521 40.6977 38.7946 40.647C38.8897 40.5337 38.9857 40.4192 39.0836 40.3023C39.2014 40.1594 39.3204 40.014 39.4407 39.8649C39.4883 39.8057 39.5361 39.7465 39.584 39.6871C39.6811 39.5666 39.7791 39.4452 39.8781 39.321C39.9997 39.1681 40.1212 39.0127 40.244 38.8548C40.3764 38.6866 40.5077 38.5143 40.6408 38.3399L40.6877 38.2784C40.8142 38.1129 40.9408 37.945 41.0686 37.7746C41.2153 37.5766 41.3644 37.3735 41.5135 37.1693C41.6413 36.9926 41.7679 36.8171 41.8957 36.6367C42.0255 36.4524 42.1553 36.2652 42.2859 36.0769L42.3444 35.9925C42.4518 35.8388 42.5574 35.6834 42.6642 35.5261C42.6845 35.4962 42.7049 35.4662 42.7254 35.4361C42.8745 35.213 43.0236 34.9862 43.1728 34.7569C43.2889 34.5786 43.4039 34.4002 43.521 34.2188L43.545 34.1816C43.5745 34.1329 43.6051 34.0862 43.6361 34.0389C43.6537 34.012 43.6714 33.985 43.6891 33.9573H48.8949L60.8266 54.2441H5.17343ZM41.3744 16.5139C41.3744 21.1307 37.6198 24.8853 33.003 24.8853C28.3875 24.8853 24.6317 21.1307 24.6317 16.5139C24.6317 11.8971 28.3875 8.14126 33.003 8.14126C37.6198 8.14126 41.3744 11.8971 41.3744 16.5139ZM37.6148 16.5151C37.6148 13.9712 35.5458 11.9021 33.003 11.9021C30.4603 11.9021 28.3913 13.9712 28.3913 16.5151C28.3913 19.0591 30.4603 21.1269 33.003 21.1269C35.547 21.1269 37.6148 19.0591 37.6148 16.5151Z" fill="white"/>
</svg>
