<svg width="63" height="74" viewBox="0 0 63 74" fill="none" xmlns="http://www.w3.org/2000/svg">
<g clip-path="url(#clip0_190_3151)">
<path d="M53 73.2179H10C4.5 73.2179 0 68.7179 0 63.2179V20.2179C0 14.7179 4.5 10.2179 10 10.2179H53C58.5 10.2179 63 14.7179 63 20.2179V63.2179C63 68.7179 58.5 73.2179 53 73.2179ZM10 13.2179C6.1 13.2179 3 16.3179 3 20.2179V63.2179C3 67.1179 6.1 70.2179 10 70.2179H53C56.9 70.2179 60 67.1179 60 63.2179V20.2179C60 16.3179 56.9 13.2179 53 13.2179H10Z" fill="white"/>
<path d="M19.5 26.3179C16.5 26.3179 14 23.8179 14 20.8179C14 17.8179 16.5 15.3179 19.5 15.3179C22.5 15.3179 25 17.8179 25 20.8179C25 23.8179 22.5 26.3179 19.5 26.3179ZM19.5 18.3179C18.1 18.3179 17 19.4179 17 20.8179C17 22.2179 18.1 23.3179 19.5 23.3179C20.9 23.3179 22 22.2179 22 20.8179C22 19.4179 20.9 18.3179 19.5 18.3179Z" fill="white"/>
<path d="M43.5 26.3179C40.5 26.3179 38 23.8179 38 20.8179C38 17.8179 40.5 15.3179 43.5 15.3179C46.5 15.3179 49 17.8179 49 20.8179C49 23.8179 46.5 26.3179 43.5 26.3179ZM43.5 18.3179C42.1 18.3179 41 19.4179 41 20.8179C41 22.2179 42.1 23.3179 43.5 23.3179C44.9 23.3179 46 22.2179 46 20.8179C46 19.4179 44.9 18.3179 43.5 18.3179Z" fill="white"/>
<path d="M61.5 31.1179H1.5C0.7 31.1179 0 30.4179 0 29.6179C0 28.8179 0.7 28.1179 1.5 28.1179H61.5C62.3 28.1179 63 28.8179 63 29.6179C63 30.4179 62.3 31.1179 61.5 31.1179Z" fill="white"/>
<path d="M44.7 52.2179H19.7C18.9 52.2179 18.2 51.5179 18.2 50.7179C18.2 49.9179 18.9 49.2179 19.7 49.2179H44.7C45.5 49.2179 46.2 49.9179 46.2 50.7179C46.2 51.5179 45.5 52.2179 44.7 52.2179Z" fill="white"/>
<path d="M18.3 54.4179C18 54.4179 17.8 54.3179 17.5 54.2179C16.8 53.8179 16.6 52.8179 17 52.1179L17.9 50.7179L17 49.3179C16.6 48.6179 16.8 47.7179 17.5 47.2179C18.2 46.8179 19.1 47.0179 19.6 47.7179L21 49.9179C21.3 50.4179 21.3 51.0179 21 51.5179L19.6 53.7179C19.3 54.2179 18.8 54.4179 18.3 54.4179Z" fill="white"/>
<path d="M30.3 63.4179L27.6 62.0179C27.6 62.0179 32.1 53.2179 33.4 50.7179L27.6 39.4179C27.2 38.7179 27.5 37.8179 28.2 37.4179C28.9 37.0179 29.8 37.3179 30.2 38.0179L36.5 50.0179C36.6 50.2179 36.7 50.4179 36.7 50.7179C36.6 51.1179 36.6 51.1179 30.3 63.4179Z" fill="white"/>
<path d="M19.5 19.8179C18.7 19.8179 18 19.1179 18 18.3179V2.31787C18 1.51787 18.7 0.817871 19.5 0.817871C20.3 0.817871 21 1.51787 21 2.31787V18.3179C21 19.1179 20.3 19.8179 19.5 19.8179Z" fill="white"/>
<path d="M43.5 19.8179C42.7 19.8179 42 19.1179 42 18.3179V2.31787C42 1.51787 42.7 0.817871 43.5 0.817871C44.3 0.817871 45 1.51787 45 2.31787V18.3179C45 19.1179 44.3 19.8179 43.5 19.8179Z" fill="white"/>
</g>
<defs>
<clipPath id="clip0_190_3151">
<rect width="63" height="72.4" fill="white" transform="translate(0 0.817871)"/>
</clipPath>
</defs>
</svg>
