<svg width="32" height="32" viewBox="0 0 32 32" fill="none" xmlns="http://www.w3.org/2000/svg">
<path d="M12.6666 8.6665V12.6665H8.66663V8.6665H12.6666ZM14.6666 6.6665H6.66663V14.6665H14.6666V6.6665ZM12.6666 19.3332V23.3332H8.66663V19.3332H12.6666ZM14.6666 17.3332H6.66663V25.3332H14.6666V17.3332ZM23.3333 8.6665V12.6665H19.3333V8.6665H23.3333ZM25.3333 6.6665H17.3333V14.6665H25.3333V6.6665ZM17.3333 17.3332H19.3333V19.3332H17.3333V17.3332ZM19.3333 19.3332H21.3333V21.3332H19.3333V19.3332ZM21.3333 17.3332H23.3333V19.3332H21.3333V17.3332ZM17.3333 21.3332H19.3333V23.3332H17.3333V21.3332ZM19.3333 23.3332H21.3333V25.3332H19.3333V23.3332ZM21.3333 21.3332H23.3333V23.3332H21.3333V21.3332ZM23.3333 19.3332H25.3333V21.3332H23.3333V19.3332ZM23.3333 23.3332H25.3333V25.3332H23.3333V23.3332ZM29.3333 9.33317H26.6666V5.33317H22.6666V2.6665H29.3333V9.33317ZM29.3333 29.3332V22.6665H26.6666V26.6665H22.6666V29.3332H29.3333ZM2.66663 29.3332H9.33329V26.6665H5.33329V22.6665H2.66663V29.3332ZM2.66663 2.6665V9.33317H5.33329V5.33317H9.33329V2.6665H2.66663Z" fill="#2097F5"/>
</svg>
