<svg width="77" height="52" viewBox="0 0 77 52" fill="none" xmlns="http://www.w3.org/2000/svg">
<g clip-path="url(#clip0_190_3156)">
<path d="M68.1604 30.7197V14.3228H72.9979C73.3686 14.3156 73.7221 14.1651 73.9843 13.9029C74.2464 13.6408 74.3969 13.2872 74.4041 12.9165V4.9009C74.3969 4.5302 74.2464 4.17668 73.9843 3.9145C73.7221 3.65232 73.3686 3.50185 72.9979 3.49465H66.7541C66.6422 3.4785 66.5285 3.4785 66.4166 3.49465C65.686 2.55607 64.7523 1.79518 63.6855 1.2691C62.6187 0.743027 61.4466 0.465431 60.2572 0.457153H50.2166C49.8459 0.464354 49.4924 0.614822 49.2302 0.877001C48.968 1.13918 48.8176 1.4927 48.8104 1.8634V7.96653C48.8139 8.2855 48.9237 8.59419 49.1224 8.84378C49.321 9.09337 49.5972 9.26962 49.9072 9.34466L57.5291 11.1728L56.5729 19.6103C56.4542 21.2094 55.8983 22.7452 54.9658 24.0497C54.0332 25.3543 52.7601 26.3773 51.2854 27.0072C49.4891 27.6991 47.4993 27.6963 45.7049 26.9994C43.9105 26.3024 42.4406 24.9614 41.5822 23.2384L37.6447 15.8697C38.9997 15.5049 40.1968 14.704 41.0509 13.5906C41.905 12.4772 42.3685 11.1135 42.3697 9.71028V8.81028C42.3697 7.10958 41.6941 5.47853 40.4916 4.27596C39.289 3.07338 37.6579 2.39778 35.9572 2.39778H18.0697C16.369 2.39778 14.738 3.07338 13.5354 4.27596C12.3328 5.47853 11.6572 7.10958 11.6572 8.81028V9.82278C11.6609 11.0887 12.0359 12.3258 12.7358 13.3806C13.4357 14.4355 14.4297 15.2618 15.5947 15.7572C11.2412 17.7499 7.5514 20.9507 4.96382 24.9791C2.37624 29.0076 0.99972 33.6943 0.997864 38.4822V39.5509C0.997864 39.9239 1.14602 40.2816 1.40975 40.5453C1.67347 40.809 2.03115 40.9572 2.40411 40.9572H12.7541C13.0683 43.7995 14.4199 46.4261 16.5502 48.3339C18.6805 50.2417 21.4397 51.2967 24.2994 51.2967C27.1591 51.2967 29.9183 50.2417 32.0486 48.3339C34.1789 46.4261 35.5306 43.7995 35.8447 40.9572H52.4385C52.3545 41.4505 52.2982 41.9482 52.2697 42.4478C52.2697 42.8207 52.4179 43.1784 52.6816 43.4422C52.9453 43.7059 53.303 43.854 53.676 43.854H55.6447C55.964 46.0016 57.0441 47.9629 58.6883 49.3808C60.3325 50.7987 62.4314 51.5786 64.6026 51.5786C66.7737 51.5786 68.8726 50.7987 70.5168 49.3808C72.161 47.9629 73.2411 46.0016 73.5604 43.854H75.5291C75.9021 43.854 76.2598 43.7059 76.5235 43.4422C76.7872 43.1784 76.9354 42.8207 76.9354 42.4478C76.9249 39.8101 76.066 37.2457 74.4858 35.1337C72.9056 33.0217 70.6879 31.4741 68.1604 30.7197ZM68.1604 6.30715H71.5916V11.5103H68.1604V6.3634V6.30715ZM18.0697 13.4509C17.5946 13.4509 17.1242 13.3569 16.6856 13.1742C16.2469 12.9915 15.8488 12.7238 15.5142 12.3866C15.1795 12.0493 14.9149 11.6491 14.7357 11.2091C14.5564 10.7691 14.466 10.2979 14.4697 9.82278V8.81028C14.4697 7.8555 14.849 6.93982 15.5242 6.26469C16.1993 5.58956 17.115 5.21028 18.0697 5.21028H35.9572C36.912 5.21028 37.8277 5.58956 38.5028 6.26469C39.178 6.93982 39.5572 7.8555 39.5572 8.81028V9.82278C39.5609 10.2979 39.4706 10.7691 39.2913 11.2091C39.1121 11.6491 38.8475 12.0493 38.5128 12.3866C38.1782 12.7238 37.78 12.9915 37.3414 13.1742C36.9028 13.3569 36.4324 13.4509 35.9572 13.4509H18.0697ZM24.3135 48.5509C22.1885 48.5399 20.1377 47.7679 18.533 46.3747C16.9283 44.9816 15.8759 43.0596 15.5666 40.9572H33.0322C32.7292 43.0572 31.6824 44.9788 30.0824 46.3724C28.4823 47.7659 26.4353 48.539 24.3135 48.5509ZM3.81036 38.1447C3.90622 32.3129 6.28848 26.752 10.4442 22.6594C14.5999 18.5669 20.1966 16.27 26.0291 16.2634H34.4666L38.9385 24.7009C40.1537 26.9847 42.1678 28.7407 44.596 29.6331C47.0242 30.5255 49.6961 30.4918 52.101 29.5384C54.049 28.7205 55.7377 27.388 56.9862 25.6836C58.2347 23.9793 58.996 21.9673 59.1885 19.8634L60.2572 10.3009C60.3004 9.96009 60.2148 9.61543 60.0171 9.33448C59.8194 9.05353 59.5239 8.85655 59.1885 8.78215L51.426 6.89778V3.35403H60.1166C61.4645 3.36141 62.755 3.90012 63.7081 4.8532C64.6611 5.80628 65.1999 7.09681 65.2072 8.44465V30.2134C64.9637 30.1996 64.7195 30.1996 64.476 30.2134C61.9897 30.2224 59.5646 30.9853 57.5209 32.4014C55.4772 33.8174 53.911 35.82 53.0291 38.1447H3.81036ZM64.6166 48.7478C63.2196 48.7129 61.8743 48.2125 60.7941 47.3259C59.7139 46.4393 58.9607 45.2174 58.6541 43.854H70.8604C70.5382 45.2618 69.7421 46.5162 68.6055 47.4071C67.4688 48.298 66.0606 48.7713 64.6166 48.7478ZM55.1947 41.0415C55.5227 38.7804 56.6541 36.713 58.3817 35.2178C60.1094 33.7227 62.3177 32.8998 64.6026 32.8998C66.8874 32.8998 69.0957 33.7227 70.8234 35.2178C72.551 36.713 73.6824 38.7804 74.0104 41.0415H55.1947Z" fill="white"/>
</g>
<defs>
<clipPath id="clip0_190_3156">
<rect width="75.9375" height="51.1215" fill="white" transform="translate(0.997864 0.457153)"/>
</clipPath>
</defs>
</svg>
