<svg width="85" height="64" viewBox="0 0 85 64" fill="none" xmlns="http://www.w3.org/2000/svg">
<g clip-path="url(#clip0_190_3154)">
<path d="M53 47.1178C48.6 47.1178 45 50.7178 45 55.1178C45 59.5178 48.6 63.1178 53 63.1178C57.4 63.1178 61 59.5178 61 55.1178C61 50.7178 57.4 47.1178 53 47.1178ZM53 60.1178C50.2 60.1178 48 57.9178 48 55.1178C48 52.3178 50.2 50.1178 53 50.1178C55.8 50.1178 58 52.3178 58 55.1178C58 57.9178 55.8 60.1178 53 60.1178Z" fill="white"/>
<path d="M51.4 35.0178H64.4C68.8 35.0178 72.4 31.4178 72.4 27.0178V22.1178C72.4 17.7178 68.8 14.1178 64.4 14.1178H51.4C47 14.1178 43.4 17.7178 43.4 22.1178V27.0178C43.4 31.4178 47 35.0178 51.4 35.0178ZM46.4 22.1178C46.4 19.3178 48.6 17.1178 51.4 17.1178H64.4C67.2 17.1178 69.4 19.3178 69.4 22.1178V27.0178C69.4 29.8178 67.2 32.0178 64.4 32.0178H51.4C48.6 32.0178 46.4 29.8178 46.4 27.0178V22.1178Z" fill="white"/>
<path d="M24.6 51.2179H29.5C33.9 51.2179 37.5 47.6179 37.5 43.2179V21.2179C37.5 16.8179 33.9 13.2179 29.5 13.2179H24.6C20.2 13.2179 16.6 16.8179 16.6 21.2179V43.1179C16.6 47.6179 20.2 51.2179 24.6 51.2179ZM19.6 21.2179C19.6 18.4179 21.8 16.2179 24.6 16.2179H29.5C32.3 16.2179 34.5 18.4179 34.5 21.2179V43.1179C34.5 45.9179 32.3 48.1179 29.5 48.1179H24.6C21.8 48.1179 19.6 45.9179 19.6 43.1179V21.2179Z" fill="white"/>
<path d="M23 35.7179C24.1 35.7179 25 34.8179 25 33.7179C25 32.6179 24.1 31.7179 23 31.7179C21.9 31.7179 21 32.6179 21 33.7179C21 34.8179 21.9 35.7179 23 35.7179Z" fill="white"/>
<path d="M2.29999 50.1178H6.59999C7.89999 53.9178 11.5 56.6178 15.7 56.6178H40.2C41 56.6178 41.7 55.9178 41.7 55.1178C41.7 48.9178 46.7 43.9178 52.9 43.9178C59.1 43.9178 64.1 48.9178 64.1 55.1178C64.1 55.9178 64.8 56.6178 65.6 56.6178H68.6C77.6 56.6178 85 49.2178 85 40.2178V27.7178C85 13.4178 73.9 1.71785 59.6 0.917847C59.5 0.917847 59.4 0.917847 59.3 0.917847H32.8C18.3 0.917847 6.29999 12.6178 5.99999 27.1178C5.99999 27.2178 5.99999 27.2178 5.99999 27.3178V27.8178V46.9178C5.99999 46.9178 5.99999 47.0178 5.99999 47.1178C5.99999 47.2178 5.99999 47.2178 5.99999 47.2178H2.29999C1.49999 47.2178 0.799988 47.9178 0.799988 48.7178C0.799988 49.5178 1.49999 50.1178 2.29999 50.1178ZM8.99999 27.6178C8.99999 27.6178 8.99999 27.5178 8.99999 27.4178V27.3178V27.2178C9.29999 14.4178 19.9 3.91785 32.8 3.91785H58.9C59 3.91785 59 3.91785 59.1 3.91785C71.9 4.41785 81.9 14.9178 81.9 27.7178V40.2178C81.9 47.6179 75.9 53.6178 68.5 53.6178H66.9C66.1 46.5178 60.1 40.9178 52.7 40.9178C45.3 40.9178 39.3 46.5178 38.5 53.6178H15.6C12 53.6178 8.99999 50.7178 8.99999 47.1178V47.0178V46.9178V27.9178V27.8178V27.6178Z" fill="white"/>
</g>
<defs>
<clipPath id="clip0_190_3154">
<rect width="84.2" height="62.2" fill="white" transform="translate(0.799988 0.917847)"/>
</clipPath>
</defs>
</svg>
